<?xml version="1.0" encoding="utf-8"?>
<!-- Generator: Adobe Illustrator 27.0.0, SVG Export Plug-In . SVG Version: 6.00 Build 0)  -->
<svg version="1.1" id="圖層_1" xmlns="http://www.w3.org/2000/svg" xmlns:xlink="http://www.w3.org/1999/xlink" x="0px" y="0px"
	 viewBox="0 0 320 320" style="enable-background:new 0 0 320 320;" xml:space="preserve">
<style type="text/css">
	.st0{fill:#FFFFFF;}
</style>
<g id="Layer_2">
	<g id="LINE_LOGO">
		<path class="st0" d="M247.9,0H72.1C32.3,0,0,32.3,0,72.1v175.7C0,287.7,32.3,320,72.1,320h175.7c39.8,0,72.1-32.3,72.1-72.1V72.1
			C320,32.3,287.7,0,247.9,0z M243.8,198.2c-22.4,25.8-72.4,57.2-83.8,61.9c-11.4,4.8-9.7-3.1-9.2-5.8c0.3-1.6,1.5-9.1,1.5-9.1
			c0.4-2.7,0.7-7-0.3-9.7c-1.2-3-5.9-4.5-9.4-5.3c-51.2-6.8-89.2-42.6-89.2-85.4c0-47.7,47.9-86.6,106.7-86.6
			c58.8,0,106.7,38.8,106.7,86.6C266.7,164,259.2,181.2,243.8,198.2z"/>
		<path class="st0" d="M231.2,172.5h-30c-1.1,0-2-0.9-2-2l0,0l0,0v-46.6l0,0l0,0c0-1.1,0.9-2,2-2h30c1.1,0,2,0.9,2,2v7.6
			c0,1.1-0.9,2-2,2h-20.4v7.9h20.4c1.1,0,2,0.9,2,2v7.6c0,1.1-0.9,2-2,2h-20.4v7.9h20.4c1.1,0,2,0.9,2,2v7.6
			C233.2,171.5,232.3,172.5,231.2,172.5C231.2,172.5,231.2,172.5,231.2,172.5z"/>
		<path class="st0" d="M120.3,172.5c1.1,0,2-0.9,2-2v-7.6c0-1.1-0.9-2-2-2H99.9v-37c0-1.1-0.9-2-2-2h-7.6c-1.1,0-2,0.9-2,2v46.5l0,0
			l0,0c0,1.1,0.9,2,2,2L120.3,172.5L120.3,172.5z"/>
		<path class="st0" d="M130.8,121.8h7.6c1.1,0,2,0.9,2,2v46.6c0,1.1-0.9,2-2,2h-7.6c-1.1,0-2-0.9-2-2v-46.6
			C128.7,122.8,129.6,121.8,130.8,121.8z"/>
		<path class="st0" d="M189.8,121.8h-7.6c-1.1,0-2,0.9-2,2v27.7L159,122.7c0-0.1-0.1-0.1-0.2-0.2l0,0l-0.1-0.1l0,0l-0.1-0.1h-0.1
			l-0.1-0.1h-0.1l-0.1-0.1h-0.1h-0.1H158h-0.1h-0.1h-0.1h-0.1h-0.1h-7.7c-1.1,0-2,0.9-2,2v46.6c0,1.1,0.9,2,2,2h7.6c1.1,0,2-0.9,2-2
			v-27.9l21.3,28.8c0.1,0.2,0.3,0.4,0.5,0.5l0,0l0.1,0.1h0.1l0.1,0.1h0.1h0.1h0.1l0,0c0.2,0,0.4,0.1,0.5,0.1h7.5c1.1,0,2-0.9,2-2
			v-46.4C191.9,122.8,191,121.9,189.8,121.8C189.9,121.9,189.9,121.8,189.8,121.8z"/>
	</g>
</g>
</svg>
